<svg xmlns="http://www.w3.org/2000/svg" width="284" height="76" fill="none">
  <path stroke="#FBBC33" stroke-width="1.5" d="M74 49.73V26.265l.343-.177L74 25.42h-.75v.386l-1.227.632c-7.817 4.026-16.607 6.69-25.422 7.703-2.137.245-5.046.463-5.125.384-.033-.033-.008-.793.056-1.69.72-10.088 3.38-19.7 7.93-28.653l.729-1.433h.38V2l-.668-.34-.172.34H26.268l-.174-.34-.668.34v.75h.383l.63 1.227c4.025 7.817 6.688 16.607 7.702 25.422.245 2.137.463 5.046.384 5.125-.033.033-.793.008-1.69-.056-10.088-.72-19.7-3.38-28.653-7.93l-1.433-.729v-.38l-.75.668.347-1.353-1.097-.574v27.628l1.09-.557 2.08-1.061c7.963-4.064 16.49-6.615 25.498-7.627a79.128 79.128 0 0 1 3.005-.272c.32-.022.608-.04.849-.053-.012.241-.03.53-.053.85-.065.915-.166 2.06-.272 3.004-.496 4.414-1.482 9.266-2.686 13.217-1.365 4.483-3.137 8.84-5.2 12.787l-.814 1.566-.576 1.098h27.628l-.557-1.09-1.061-2.08c-4.064-7.963-6.615-16.49-7.627-25.498a79.128 79.128 0 0 1-.272-3.005c-.022-.32-.04-.608-.053-.849.241.012.53.03.85.053.915.065 2.06.166 3.004.272 4.414.496 9.266 1.482 13.217 2.686 4.483 1.365 8.84 3.137 12.787 5.2l1.574.801 1.09.554V25.421Z"/>
  <path fill="#FBB82E" d="M96.96 46V34.64h-6.4v-3.52h17.52v3.52h-6.42V46h-4.7Zm18.792.3h-1.4c-6.24 0-7.74-3.08-7.74-5.56v-.36c0-2.48 1.48-5.44 7.72-5.44h1.42c6.56 0 7.7 3 7.7 5.44v.36c0 2.48-1.06 5.56-7.7 5.56Zm-.7-2.9c3.04 0 3.88-1.52 3.88-2.78v-.1c0-1.34-.86-2.72-3.86-2.72h-.02c-3.04 0-3.88 1.36-3.88 2.72v.1c0 1.26.84 2.78 3.88 2.78Zm24.655-8.16V46h-4.42v-1.86c-.54.5-2.1 2.1-5.22 2.1h-.16c-3.7 0-5.12-2.28-5.12-4.3v-6.7h4.5v5.32c0 1.6.86 2.68 2.76 2.68 1.94 0 3.2-1.16 3.2-2.92v-5.08h4.46Zm6.338 5.2V46h-4.46V35.24h4.42v1.9c.38-.6 1.68-2.14 4.36-2.14h.22c3.12 0 4.38 2.02 4.38 4.8v.62h-4.3c0-1.38-.6-2.58-2.28-2.58h-.02c-1.5 0-2.32 1.22-2.32 2.6Zm10.247-9.32h4.46v5.62c.48-.38 2.16-1.76 5.38-1.76h.36c4.88 0 6.58 2.46 6.58 5.4v.38c0 2.9-1.94 5.5-6.72 5.5h-.34c-3.08 0-4.9-1.36-5.32-1.78-.14.42-.22 1.02-.28 1.52h-4.12V31.12Zm4.46 9.42v.08c0 1.34 1.26 2.8 3.88 2.8h.12c2.9 0 3.76-1.5 3.76-2.8v-.08c0-1.38-.86-2.78-3.76-2.78h-.12c-2.66 0-3.88 1.4-3.88 2.78Zm18.242-9.42v3.08h-4.46v-3.08h4.46Zm0 4.12V46h-4.46V35.24h4.46Zm6.347-4.12V46h-4.46V31.12h4.46Zm6.348 0V46h-4.46V31.12h4.46Zm10.528 15.18h-1.4c-6.24 0-7.74-3.08-7.74-5.56v-.36c0-2.48 1.48-5.44 7.72-5.44h1.42c6.56 0 7.7 3 7.7 5.44v.36c0 2.48-1.06 5.56-7.7 5.56Zm-.7-2.9c3.04 0 3.88-1.52 3.88-2.78v-.1c0-1.34-.86-2.72-3.86-2.72h-.02c-3.04 0-3.88 1.36-3.88 2.72v.1c0 1.26.84 2.78 3.88 2.78Zm9.775 2.6V35.24h4.42v1.84c.54-.54 2.14-2.08 5.34-2.08h.14c3.76 0 5.24 2.12 5.24 4.2V46h-4.5v-5.32c0-1.66-.9-2.68-2.88-2.68-2 0-3.3 1.16-3.3 2.92V46h-4.46Zm34.485-4.96h-6.5V46h-4.66V31.12h11.16c5.36 0 6.94 2.12 6.94 4.84v.2c0 2.66-1.62 4.88-6.94 4.88Zm-6.5-6.54v3.2h6.42c1.46 0 2.16-.54 2.16-1.56v-.06c0-1.02-.66-1.58-2.16-1.58h-6.42Zm23.976 6.72v-.34l-4.26.66c-1.14.18-1.62.38-1.62 1v.02c0 .58.439 1.22 1.96 1.22 2.38 0 3.92-1.28 3.92-2.56Zm.119 3.3c-.46.58-1.819 1.68-4.979 1.68h-.26c-3.62 0-5-1.68-5-3.52v-.14c0-1.98 1.3-2.92 4.52-3.22l4.92-.46c.5-.06.68-.22.68-.56 0-.4-.18-.88-2.8-.88h-.1c-2.66 0-2.76.84-2.82 1.2h-4.14v-.04c0-1.42.42-3.64 6.42-3.64h1.1c6.24 0 6.64 1.92 6.64 3.48v4.12c0 .32.1.54.56.54h.58V46h-3.62c-.86 0-1.54-.46-1.701-1.48Zm6.977 5.24v-3.2h2.52c.42 0 .52-.12.52-.34 0-.22-.18-.52-.5-1.14l-5.14-9.84h4.8l3.46 7.28 3.36-7.28h4.48l-5.64 11.48c-1.02 2.02-2.02 3.04-3.96 3.04h-3.9Z"/>
</svg>
