<svg width="284" height="76" viewBox="0 0 284 76" fill="none" xmlns="http://www.w3.org/2000/svg">
<path d="M74 49.7305V37.9965V26.2648L74.3434 26.0879L74 25.4212H73.25V25.8074L72.0228 26.4394C64.2056 30.4652 55.4161 33.1281 46.6006 34.1416C44.4635 34.3873 41.5553 34.6053 41.4758 34.5257C41.4431 34.4931 41.4685 33.7328 41.5324 32.8362C42.2511 22.7484 44.9113 13.1364 49.4625 4.1826L50.1906 2.75H50.5719V2L49.9033 1.66017L49.7305 2H37.9993H26.2687L26.0947 1.65906L25.4267 2V2.75H25.8095L74 49.7305ZM74 49.7305L74.3398 49.9033L74 50.5719H73.25V50.1906L74 49.7305ZM25.8202 4.42083L25.8202 4.42085C29.8842 12.3832 32.4352 20.91 33.4468 29.9182L34.1921 29.8345L33.4468 29.9182C33.5529 30.8629 33.6537 32.0067 33.7187 32.9226C33.7414 33.2421 33.7595 33.5309 33.7719 33.7719C33.5309 33.7595 33.2421 33.7414 32.9226 33.7187C32.0067 33.6537 30.8629 33.5529 29.9182 33.4468L29.9182 33.4468C25.5036 32.951 20.6519 31.9648 16.7007 30.7614C12.2179 29.3963 7.86101 27.6243 3.91365 25.5619L3.91362 25.5619L2.34728 24.7436L1.25 24.1703V25.4083V37.9909V50.5733V51.7981L2.34094 51.2413L4.42083 50.1798L4.08216 49.5162L4.42083 50.1798C7.33983 48.69 9.96589 47.5555 12.9328 46.5022C13.7965 46.1956 14.6333 45.8936 14.7727 45.8367C14.7726 45.8368 14.7738 45.8364 14.7765 45.8354C14.7898 45.8308 14.8392 45.8137 14.9409 45.7808C15.051 45.7452 15.1987 45.6985 15.3742 45.644C15.7248 45.535 16.1803 45.3963 16.6556 45.2543L16.6556 45.2543C21.0182 43.9509 25.388 43.0608 29.9181 42.5529C30.8645 42.4468 32.0084 42.3461 32.9238 42.2812C33.2429 42.2586 33.5312 42.2405 33.7719 42.2281C33.7595 42.4691 33.7414 42.7579 33.7187 43.0774C33.6537 43.9933 33.5529 45.1371 33.4468 46.0818L34.1921 46.1655L33.4468 46.0818C32.4172 55.2507 29.6903 64.222 25.5142 72.1882L24.7469 73.6518L24.1712 74.75H25.4112H37.9923H50.5733H51.7981L51.2413 73.6591L50.1798 71.5792L49.5118 71.9201L50.1798 71.5792C45.6628 62.7294 42.9928 53.1083 42.2806 43.1116C42.2575 42.7867 42.2396 42.4819 42.2277 42.2262C42.4976 42.2403 42.8285 42.2618 43.1986 42.2894C44.187 42.3629 45.4301 42.4771 46.4839 42.5989L46.5701 41.8539L46.4839 42.5989C55.2497 43.612 63.6075 46.1308 71.4776 50.1311L73.6602 51.2404L74.75 51.7944V50.5719V37.9965V25.4212V24.1913L73.6566 24.7544L71.6794 25.7727C63.9435 29.7566 55.2413 32.3933 46.5149 33.3965C45.4575 33.518 44.2061 33.6331 43.2105 33.7077C42.8358 33.7358 42.5007 33.7579 42.2278 33.7725C42.2396 33.5173 42.2574 33.2134 42.2805 32.8895C42.9921 22.9009 45.6256 13.3863 50.1311 4.52244L51.2404 2.33983L51.7944 1" stroke="#FBBC33" stroke-width="1.5"/>
<path d="M96.96 46V34.64H90.56V31.12H108.08V34.64H101.66V46H96.96ZM115.752 46.3H114.352C108.112 46.3 106.612 43.22 106.612 40.74V40.38C106.612 37.9 108.092 34.94 114.332 34.94H115.752C122.312 34.94 123.452 37.94 123.452 40.38V40.74C123.452 43.22 122.392 46.3 115.752 46.3ZM115.052 43.4C118.092 43.4 118.932 41.88 118.932 40.62V40.52C118.932 39.18 118.072 37.8 115.072 37.8H115.052C112.012 37.8 111.172 39.16 111.172 40.52V40.62C111.172 41.88 112.012 43.4 115.052 43.4ZM139.707 35.24V46H135.287V44.14C134.747 44.64 133.187 46.24 130.067 46.24H129.907C126.207 46.24 124.787 43.96 124.787 41.94V35.24H129.287V40.56C129.287 42.16 130.147 43.24 132.047 43.24C133.987 43.24 135.247 42.08 135.247 40.32V35.24H139.707ZM146.045 40.44V46H141.585V35.24H146.005V37.14C146.385 36.54 147.685 35 150.365 35H150.585C153.705 35 154.965 37.02 154.965 39.8V40.42H150.665C150.665 39.04 150.065 37.84 148.385 37.84H148.365C146.865 37.84 146.045 39.06 146.045 40.44ZM156.292 31.12H160.752V36.74C161.232 36.36 162.912 34.98 166.132 34.98H166.492C171.372 34.98 173.072 37.44 173.072 40.38V40.76C173.072 43.66 171.132 46.26 166.352 46.26H166.012C162.932 46.26 161.112 44.9 160.692 44.48C160.552 44.9 160.472 45.5 160.412 46H156.292V31.12ZM160.752 40.54V40.62C160.752 41.96 162.012 43.42 164.632 43.42H164.752C167.652 43.42 168.512 41.92 168.512 40.62V40.54C168.512 39.16 167.652 37.76 164.752 37.76H164.632C161.972 37.76 160.752 39.16 160.752 40.54ZM178.994 31.12V34.2H174.534V31.12H178.994ZM178.994 35.24V46H174.534V35.24H178.994ZM185.341 31.12V46H180.881V31.12H185.341ZM191.689 31.12V46H187.229V31.12H191.689ZM202.217 46.3H200.817C194.577 46.3 193.077 43.22 193.077 40.74V40.38C193.077 37.9 194.557 34.94 200.797 34.94H202.217C208.777 34.94 209.917 37.94 209.917 40.38V40.74C209.917 43.22 208.857 46.3 202.217 46.3ZM201.517 43.4C204.557 43.4 205.397 41.88 205.397 40.62V40.52C205.397 39.18 204.537 37.8 201.537 37.8H201.517C198.477 37.8 197.637 39.16 197.637 40.52V40.62C197.637 41.88 198.477 43.4 201.517 43.4ZM211.292 46V35.24H215.712V37.08C216.252 36.54 217.852 35 221.052 35H221.192C224.952 35 226.432 37.12 226.432 39.2V46H221.932V40.68C221.932 39.02 221.032 38 219.052 38C217.052 38 215.752 39.16 215.752 40.92V46H211.292ZM245.777 41.04H239.277V46H234.617V31.12H245.777C251.137 31.12 252.717 33.24 252.717 35.96V36.16C252.717 38.82 251.097 41.04 245.777 41.04ZM239.277 34.5V37.7H245.697C247.157 37.7 247.857 37.16 247.857 36.14V36.08C247.857 35.06 247.197 34.5 245.697 34.5H239.277ZM263.253 41.22V40.88L258.993 41.54C257.853 41.72 257.373 41.92 257.373 42.54V42.56C257.373 43.14 257.812 43.78 259.333 43.78C261.713 43.78 263.253 42.5 263.253 41.22ZM263.372 44.52C262.912 45.1 261.553 46.2 258.393 46.2H258.133C254.513 46.2 253.133 44.52 253.133 42.68V42.54C253.133 40.56 254.433 39.62 257.653 39.32L262.573 38.86C263.073 38.8 263.253 38.64 263.253 38.3C263.253 37.9 263.073 37.42 260.453 37.42H260.353C257.693 37.42 257.593 38.26 257.533 38.62H253.393V38.58C253.393 37.16 253.813 34.94 259.813 34.94H260.913C267.153 34.94 267.553 36.86 267.553 38.42V42.54C267.553 42.86 267.653 43.08 268.113 43.08H268.693V46H265.073C264.213 46 263.533 45.54 263.372 44.52ZM270.349 49.76V46.56H272.869C273.289 46.56 273.389 46.44 273.389 46.22C273.389 46 273.209 45.7 272.889 45.08L267.749 35.24H272.549L276.009 42.52L279.369 35.24H283.849L278.209 46.72C277.189 48.74 276.189 49.76 274.249 49.76H270.349Z" fill="#FBB82E"/>
</svg>
