<svg xmlns="http://www.w3.org/2000/svg" xmlns:xlink="http://www.w3.org/1999/xlink" fill="none" version="1.1" width="44.96484375" height="25.999984741210938" viewBox="0 0 44.96484375 25.999984741210938"><g><g><path d="M44.96468578125,10.497259266875C44.96468578125,10.497259266875,44.96468578125,16.853826171875,44.96468578125,16.853826171875C44.96468578125,16.853826171875,42.68538578125,16.853826171875,42.68538578125,16.853826171875C42.68538578125,16.853826171875,42.68538578125,12.394826171875,42.68538578125,12.394826171875C42.68538578125,12.394826171875,40.49072578125,12.394826171875,40.49072578125,12.394826171875C40.49072578125,12.394826171875,40.49072578125,16.853826171875,40.49072578125,16.853826171875C40.49072578125,16.853826171875,38.21142578125,16.853826171875,38.21142578125,16.853826171875C38.21142578125,16.853826171875,38.21142578125,10.496826171875,38.21142578125,10.496826171875C38.21142578125,10.496826171875,44.96468578125,10.496826171875,44.96468578125,10.496826171875C44.96468578125,10.496826171875,44.96468578125,10.497259266875,44.96468578125,10.497259266875Z" fill="#FFFFFF" fill-opacity="1"/></g><g><path d="M33.53015421875,17.08115C35.57056421875,17.08115,37.08573421875,15.83532,37.08573421875,13.946629999999999C37.08573421875,12.11862,35.96784421875,10.93172,34.09954421875,10.93172C33.23730421875,10.93172,32.52583421875,11.23397,31.98995421875,11.75548C32.11788421875,10.67757,33.03321421875,9.89063,34.04101421875,9.89063C34.27360421875,9.89063,36.02463421875,9.88695,36.02463421875,9.88695C36.02463421875,9.88695,37.01480421875,8,37.01480421875,8C37.01480421875,8,34.816454218749996,8.0498332,33.79450421875,8.0498332C31.45951421875,8.0903499,29.88232421875,10.20393,29.88232421875,12.771C29.88232421875,15.76165,31.420564218750002,17.08115,33.53015421875,17.08115ZM33.54255421875,12.60308C34.30014421875,12.60308,34.825364218749996,13.09882,34.825364218749996,13.94642C34.825364218749996,14.709299999999999,34.35867421875,15.33785,33.54255421875,15.33958C32.76190421875,15.33958,32.23668421875,14.75718,32.23668421875,13.95942C32.23668421875,13.1116,32.76190421875,12.60308,33.54255421875,12.60308Z" fill-rule="evenodd" fill="#FFFFFF" fill-opacity="1"/></g><g><path d="M28.027496875,14.725740703125C28.027496875,14.725740703125,27.489216875,15.034700703125,26.685286875,15.093200703125C25.761036875,15.120500703125,24.937516875,14.539190703125,24.937516875,13.506340703125C24.937516875,12.498840703125,25.664216875,11.921420703125,26.662006875,11.921420703125C27.273816875,11.921420703125,28.083196875,12.343700703125,28.083196875,12.343700703125C28.083196875,12.343700703125,28.675426875,11.261450703125,28.982206875,10.720220703125C28.420426875,10.296203703125,27.672196875,10.063720703125,26.801906875,10.063720703125C24.605506875,10.063720703125,22.904296875,11.489820703125,22.904296875,13.493550703124999C22.904296875,15.522850703125,24.503246875,16.915800703125,26.801906875,16.873770703125C27.444396875,16.849940703125,28.330786875,16.625250703125,28.871026875,16.279670703125C28.871026875,16.279670703125,28.027496875,14.725740703125,28.027496875,14.725740703125Z" fill="#FFFFFF" fill-opacity="1"/></g><g><path d="M0,5.6593017578125C0,5.6593017578125,3.16177,11.2872217578125,3.16177,11.2872217578125C3.16177,11.2872217578125,3.16177,14.7200817578125,3.16177,14.7200817578125C3.16177,14.7200817578125,0.00369874,20.336901757812498,0.00369874,20.336901757812498C0.00369874,20.336901757812498,0,5.6593017578125,0,5.6593017578125Z" fill="#5B57A2" fill-opacity="1"/></g><g><path d="M12.14013671875,9.2393450390625C12.14013671875,9.2393450390625,15.10282671875,7.4310485890625,15.10282671875,7.4310485890625C15.10282671875,7.4310485890625,21.166156718750003,7.4254150390625,21.166156718750003,7.4254150390625C21.166156718750003,7.4254150390625,12.14013671875,12.9317850390625,12.14013671875,12.9317850390625C12.14013671875,12.9317850390625,12.14013671875,9.2393450390625,12.14013671875,9.2393450390625Z" fill="#D90751" fill-opacity="1"/></g><g><path d="M12.123123125,5.62618C12.123123125,5.62618,12.139873125,13.0773,12.139873125,13.0773C12.139873125,13.0773,8.970703125,11.1382,8.970703125,11.1382C8.970703125,11.1382,8.970703125,0,8.970703125,0C8.970703125,0,12.123123125,5.62618,12.123123125,5.62618Z" fill="#FAB718" fill-opacity="1"/></g><g><path d="M21.165903125,7.42538C21.165903125,7.42538,15.102353125,7.43102,15.102353125,7.43102C15.102353125,7.43102,12.123123125,5.62618,12.123123125,5.62618C12.123123125,5.62618,8.970703125,0,8.970703125,0C8.970703125,0,21.165903125,7.42538,21.165903125,7.42538Z" fill="#ED6F26" fill-opacity="1"/></g><g><path d="M12.139873125,20.3681280078125C12.139873125,20.3681280078125,12.139873125,16.7530380078125,12.139873125,16.7530380078125C12.139873125,16.7530380078125,8.970703125,14.8507080078125,8.970703125,14.8507080078125C8.970703125,14.8507080078125,8.972443585,25.9999080078125,8.972443585,25.9999080078125C8.972443585,25.9999080078125,12.139873125,20.3681280078125,12.139873125,20.3681280078125Z" fill="#63B22F" fill-opacity="1"/></g><g><path d="M15.0952,18.5763017578125C15.0952,18.5763017578125,3.16156,11.2872217578125,3.16156,11.2872217578125C3.16156,11.2872217578125,0,5.6593017578125,0,5.6593017578125C0,5.6593017578125,21.1531,18.568901757812498,21.1531,18.568901757812498C21.1531,18.568901757812498,15.0952,18.5763017578125,15.0952,18.5763017578125Z" fill="#1487C9" fill-opacity="1"/></g><g><path d="M8.97265625,25.9999897265625C8.97265625,25.9999897265625,12.13965625,20.3681697265625,12.13965625,20.3681697265625C12.13965625,20.3681697265625,15.09494625,18.5763356565625,15.09494625,18.5763356565625C15.09494625,18.5763356565625,21.15285625,18.5689697265625,21.15285625,18.5689697265625C21.15285625,18.5689697265625,8.97265625,25.9999897265625,8.97265625,25.9999897265625Z" fill="#017F36" fill-opacity="1"/></g><g><path d="M0.00390625,20.336962109375C0.00390625,20.336962109375,8.99685625,14.850962109375,8.99685625,14.850962109375C8.99685625,14.850962109375,5.97346625,13.003662109375,5.97346625,13.003662109375C5.97346625,13.003662109375,3.16198625,14.720092109374999,3.16198625,14.720092109374999C3.16198625,14.720092109374999,0.00390625,20.336962109375,0.00390625,20.336962109375Z" fill="#984995" fill-opacity="1"/></g></g></svg>