<svg xmlns="http://www.w3.org/2000/svg" xmlns:xlink="http://www.w3.org/1999/xlink" fill="none" version="1.1" width="24" height="24" viewBox="0 0 24 24"><g><g><g><path d="M2,11.860000610351562L19,11.860000610351562Q19.0739,11.860000610351562,19.1463,11.874411610351562Q19.2188,11.888822610351562,19.287,11.917090610351563Q19.3553,11.945359610351563,19.4167,11.986398610351563Q19.4781,12.027437610351562,19.5303,12.079670610351563Q19.5826,12.131903610351563,19.6236,12.193322610351563Q19.6646,12.254742610351563,19.6929,12.322987610351563Q19.7212,12.391233610351563,19.7356,12.463682610351562Q19.75,12.536132110351563,19.75,12.610000610351562Q19.75,12.683869110351562,19.7356,12.756318610351563Q19.7212,12.828767610351562,19.6929,12.897013610351562Q19.6646,12.965258610351562,19.6236,13.026678610351562Q19.5826,13.088097610351562,19.5303,13.140330610351562Q19.4781,13.192563610351563,19.4167,13.233602610351562Q19.3553,13.274641610351562,19.287,13.302910610351562Q19.2188,13.331178610351563,19.1463,13.345589610351563Q19.0739,13.360000610351562,19,13.360000610351562L2,13.360000610351562Q1.9261314999999999,13.360000610351562,1.853682,13.345589610351563Q1.781233,13.331178610351563,1.712987,13.302910610351562Q1.644742,13.274641610351562,1.583322,13.233602610351562Q1.521903,13.192563610351563,1.46967,13.140330610351562Q1.417437,13.088097610351562,1.376398,13.026678610351562Q1.335359,12.965258610351562,1.30709,12.897013610351562Q1.278822,12.828767610351562,1.264411,12.756318610351563Q1.25,12.683869110351562,1.25,12.610000610351562Q1.25,12.536132110351563,1.264411,12.463682610351562Q1.278822,12.391233610351563,1.30709,12.322987610351563Q1.335359,12.254742610351563,1.376398,12.193322610351563Q1.417437,12.131903610351563,1.46967,12.079670610351563Q1.521903,12.027437610351562,1.583322,11.986398610351563Q1.644742,11.945359610351563,1.712987,11.917090610351563Q1.781233,11.888822610351562,1.853682,11.874411610351562Q1.9261314999999999,11.860000610351562,2,11.860000610351562Z" fill-rule="evenodd" fill="#FFFFFF" fill-opacity="1"/></g><g><path d="M18.7693,6.763649237060547Q17.7927,5.799999237060547,15.22,5.799999237060547L5.78003,5.799999237060547Q5.46439,5.799999237060547,4.955769999999999,5.821305237060547Q2.858827,5.945175237060547,2.0234761,6.999143237060547Q1.25,7.975039237060547,1.25,10.279999237060547L1.25,17.269999237060546Q1.25,19.818599237060546,2.230728,20.786399237060547Q3.2073,21.749999237060546,5.78003,21.749999237060546L15.22,21.749999237060546Q17.7485,21.749999237060546,18.7264,20.829999237060548Q19.7241,19.891399237060547,19.75,17.42999923706055L19.75,10.279999237060547Q19.75,7.731399237060547,18.7693,6.763649237060547ZM5.78003,7.299999237060547L15.22,7.299999237060547Q17.1772,7.299999237060547,17.7157,7.831349237060547Q18.25,8.358579237060546,18.25,10.279999237060547L18.25,17.42999923706055Q18.2309,19.23669923706055,17.6986,19.737499237060547Q17.1538,20.249999237060546,15.22,20.249999237060546L5.78003,20.249999237060546Q3.8227700000000002,20.249999237060546,3.2843,19.718699237060548Q2.75,19.191399237060548,2.75,17.269999237060546L2.75,10.279999237060547Q2.75,8.497389237060547,3.19902,7.930859237060547Q3.61741,7.4029792370605465,5.044230000000001,7.318694237060547Q5.49563,7.299999237060547,5.78003,7.299999237060547Z" fill-rule="evenodd" fill="#FFFFFF" fill-opacity="1"/></g><g><path d="M21.7693,3.21365Q20.7927,2.25,18.22,2.25L8.78003,2.250001Q6.25151,2.250001,5.273607,3.169991Q4.275867,4.10864,4.250042,6.5621100000000006Q4.249836,6.58167,4.25065,6.60122Q4.256861,6.75028,4.31964,6.88561Q4.382419,7.02094,4.492208,7.12195Q4.601998,7.22295,4.742083,7.27426Q4.882168,7.32556,5.0312232,7.31935Q5.495629,7.3,5.780029,7.3L15.22,7.3Q17.1772,7.3,17.7157,7.83135Q18.25,8.35858,18.25,10.280000000000001L18.25,17.43Q18.25,17.4521,18.2513,17.4742Q18.2601,17.6231,18.325200000000002,17.7574Q18.3903,17.8916,18.5019,17.9907Q18.6134,18.0898,18.7543,18.1386Q18.8953,18.1875,19.0442,18.1787Q21.1412,18.0548,21.9765,17.0009Q22.75,16.025,22.75,13.72L22.75,6.73Q22.75,4.1814,21.7693,3.21365ZM8.78003,3.750001L18.22,3.75Q20.1772,3.75,20.7157,4.28135Q21.25,4.80858,21.25,6.73L21.25,13.72Q21.25,15.5026,20.801000000000002,16.0691Q20.5135,16.431800000000003,19.75,16.5851L19.75,10.280000000000001Q19.75,7.7314,18.7693,6.76365Q17.7927,5.8,15.22,5.8L5.787059,5.8Q5.893741,4.64605,6.30142,4.26251Q6.84619,3.750001,8.78003,3.750001Z" fill-rule="evenodd" fill="#FFFFFF" fill-opacity="1"/></g><g><path d="M5.25,17.060001373291016L6.96997,17.060001373291016Q7.04384,17.060001373291016,7.11629,17.074412373291015Q7.18874,17.088823373291017,7.25698,17.117091373291014Q7.3252299999999995,17.145360373291016,7.3866499999999995,17.186399373291017Q7.4480699999999995,17.227438373291015,7.5003,17.279671373291016Q7.55253,17.331904373291017,7.59357,17.393323373291015Q7.63461,17.454743373291016,7.6628799999999995,17.522988373291014Q7.69115,17.591234373291016,7.70556,17.663683373291015Q7.71997,17.736132873291016,7.71997,17.810001373291016Q7.71997,17.883869873291015,7.70556,17.956319373291016Q7.69115,18.028768373291015,7.6628799999999995,18.097014373291017Q7.63461,18.165259373291015,7.59357,18.226679373291017Q7.55253,18.288098373291014,7.5003,18.340331373291015Q7.4480699999999995,18.392564373291016,7.3866499999999995,18.433603373291014Q7.3252299999999995,18.474642373291015,7.25698,18.502911373291017Q7.18874,18.531179373291014,7.11629,18.545590373291017Q7.04384,18.560001373291016,6.96997,18.560001373291016L5.25,18.560001373291016Q5.1761315,18.560001373291016,5.103682,18.545590373291017Q5.031233,18.531179373291014,4.962987,18.502911373291017Q4.894742,18.474642373291015,4.833322,18.433603373291014Q4.771903,18.392564373291016,4.71967,18.340331373291015Q4.667437,18.288098373291014,4.626398,18.226679373291017Q4.585359,18.165259373291015,4.55709,18.097014373291017Q4.528822,18.028768373291015,4.514411,17.956319373291016Q4.5,17.883869873291015,4.5,17.810001373291016Q4.5,17.736132873291016,4.514411,17.663683373291015Q4.528822,17.591234373291016,4.55709,17.522988373291014Q4.585359,17.454743373291016,4.626398,17.393323373291015Q4.667437,17.331904373291017,4.71967,17.279671373291016Q4.771903,17.227438373291015,4.833322,17.186399373291017Q4.894742,17.145360373291016,4.962987,17.117091373291014Q5.031233,17.088823373291017,5.103682,17.074412373291015Q5.1761315,17.060001373291016,5.25,17.060001373291016Z" fill-rule="evenodd" fill="#FFFFFF" fill-opacity="1"/></g><g><path d="M9.1099853515625,17.060001373291016L12.5499853515625,17.060001373291016Q12.6238553515625,17.060001373291016,12.6963053515625,17.074412373291015Q12.7687553515625,17.088823373291017,12.8369953515625,17.117091373291014Q12.905245351562499,17.145360373291016,12.9666653515625,17.186399373291017Q13.028085351562499,17.227438373291015,13.0803153515625,17.279671373291016Q13.1325453515625,17.331904373291017,13.173585351562501,17.393323373291015Q13.2146253515625,17.454743373291016,13.242895351562499,17.522988373291014Q13.2711653515625,17.591234373291016,13.2855753515625,17.663683373291015Q13.299985351562501,17.736132873291016,13.299985351562501,17.810001373291016Q13.299985351562501,17.883869873291015,13.2855753515625,17.956319373291016Q13.2711653515625,18.028768373291015,13.242895351562499,18.097014373291017Q13.2146253515625,18.165259373291015,13.173585351562501,18.226679373291017Q13.1325453515625,18.288098373291014,13.0803153515625,18.340331373291015Q13.028085351562499,18.392564373291016,12.9666653515625,18.433603373291014Q12.905245351562499,18.474642373291015,12.8369953515625,18.502911373291017Q12.7687553515625,18.531179373291014,12.6963053515625,18.545590373291017Q12.6238553515625,18.560001373291016,12.5499853515625,18.560001373291016L9.1099853515625,18.560001373291016Q9.0361168515625,18.560001373291016,8.9636673515625,18.545590373291017Q8.8912183515625,18.531179373291014,8.8229723515625,18.502911373291017Q8.7547273515625,18.474642373291015,8.6933073515625,18.433603373291014Q8.6318883515625,18.392564373291016,8.5796553515625,18.340331373291015Q8.5274223515625,18.288098373291014,8.4863833515625,18.226679373291017Q8.4453443515625,18.165259373291015,8.4170753515625,18.097014373291017Q8.3888073515625,18.028768373291015,8.374396351562499,17.956319373291016Q8.3599853515625,17.883869873291015,8.3599853515625,17.810001373291016Q8.3599853515625,17.736132873291016,8.374396351562499,17.663683373291015Q8.3888073515625,17.591234373291016,8.4170753515625,17.522988373291014Q8.4453443515625,17.454743373291016,8.4863833515625,17.393323373291015Q8.5274223515625,17.331904373291017,8.5796553515625,17.279671373291016Q8.6318883515625,17.227438373291015,8.6933073515625,17.186399373291017Q8.7547273515625,17.145360373291016,8.8229723515625,17.117091373291014Q8.8912183515625,17.088823373291017,8.9636673515625,17.074412373291015Q9.0361168515625,17.060001373291016,9.1099853515625,17.060001373291016Z" fill-rule="evenodd" fill="#FFFFFF" fill-opacity="1"/></g><g style="opacity:0;"></g></g></g></svg>