<svg xmlns="http://www.w3.org/2000/svg" xmlns:xlink="http://www.w3.org/1999/xlink" fill="none" version="1.1" width="24" height="24" viewBox="0 0 24 24"><g><g><g><g><path d="M6.5,2.75L9,2.75Q9.07387,2.75,9.14632,2.735589Q9.21877,2.721178,9.28701,2.69291Q9.355260000000001,2.664641,9.41668,2.623602Q9.478100000000001,2.582563,9.53033,2.53033Q9.58256,2.478097,9.6236,2.416678Q9.66464,2.355258,9.692910000000001,2.287013Q9.72118,2.218767,9.73559,2.146318Q9.75,2.0738685,9.75,2Q9.75,1.9261314999999999,9.73559,1.853682Q9.72118,1.781233,9.692910000000001,1.712987Q9.66464,1.644742,9.6236,1.583322Q9.58256,1.521903,9.53033,1.46967Q9.478100000000001,1.417437,9.41668,1.376398Q9.355260000000001,1.335359,9.28701,1.30709Q9.21877,1.278822,9.14632,1.264411Q9.07387,1.25,9,1.25L6.5,1.25Q4.32184,1.25,2.78592,2.78592Q1.25,4.32184,1.25,6.5L1.25,9Q1.25,9.07387,1.264411,9.14632Q1.278822,9.21877,1.30709,9.28701Q1.335359,9.355260000000001,1.376398,9.41668Q1.417437,9.478100000000001,1.46967,9.53033Q1.521903,9.58256,1.583322,9.6236Q1.644742,9.66464,1.712987,9.692910000000001Q1.781233,9.72118,1.853682,9.73559Q1.9261314999999999,9.75,2,9.75Q2.0738685,9.75,2.146318,9.73559Q2.218767,9.72118,2.287013,9.692910000000001Q2.355258,9.66464,2.416678,9.6236Q2.478097,9.58256,2.53033,9.53033Q2.582563,9.478100000000001,2.623602,9.41668Q2.664641,9.355260000000001,2.69291,9.28701Q2.721178,9.21877,2.735589,9.14632Q2.75,9.07387,2.75,9L2.75,6.5Q2.75,4.943160000000001,3.8465800000000003,3.8465800000000003Q4.943160000000001,2.75,6.5,2.75Z" fill-rule="evenodd" fill="#FFFFFF" fill-opacity="1"/></g><g><path d="M15,1.25L17.5,1.25Q19.67816,1.25,21.21408,2.78592Q22.75,4.32184,22.75,6.5L22.75,9Q22.75,9.07387,22.735590000000002,9.14632Q22.72118,9.21877,22.69291,9.28701Q22.66464,9.355260000000001,22.6236,9.41668Q22.58256,9.478100000000001,22.53033,9.53033Q22.4781,9.58256,22.41668,9.6236Q22.35526,9.66464,22.287010000000002,9.692910000000001Q22.21877,9.72118,22.14632,9.73559Q22.07387,9.75,22,9.75Q21.92613,9.75,21.85368,9.73559Q21.78123,9.72118,21.712989999999998,9.692910000000001Q21.64474,9.66464,21.58332,9.6236Q21.5219,9.58256,21.46967,9.53033Q21.41744,9.478100000000001,21.3764,9.41668Q21.33536,9.355260000000001,21.30709,9.28701Q21.27882,9.21877,21.264409999999998,9.14632Q21.25,9.07387,21.25,9L21.25,6.5Q21.25,4.943160000000001,20.15342,3.8465800000000003Q19.05684,2.75,17.5,2.75L15,2.75Q14.9261315,2.75,14.853682,2.735589Q14.781233,2.721178,14.712987,2.69291Q14.644742,2.664641,14.583322,2.623602Q14.521903,2.582563,14.46967,2.53033Q14.417437,2.478097,14.376398,2.416678Q14.335359,2.355258,14.30709,2.287013Q14.278822,2.218767,14.264410999999999,2.146318Q14.25,2.0738685,14.25,2Q14.25,1.9261314999999999,14.264410999999999,1.853682Q14.278822,1.781233,14.30709,1.712987Q14.335359,1.644742,14.376398,1.583322Q14.417437,1.521903,14.46967,1.46967Q14.521903,1.417437,14.583322,1.376398Q14.644742,1.335359,14.712987,1.30709Q14.781233,1.278822,14.853682,1.264411Q14.9261315,1.25,15,1.25Z" fill-rule="evenodd" fill="#FFFFFF" fill-opacity="1"/></g><g><path d="M21.25,16Q21.25,15.9261315,21.264409999999998,15.853682Q21.27882,15.781233,21.30709,15.712987Q21.33536,15.644742,21.3764,15.583322Q21.41744,15.521903,21.46967,15.46967Q21.5219,15.417437,21.58332,15.376398Q21.64474,15.335359,21.712989999999998,15.30709Q21.78123,15.278822,21.85368,15.264410999999999Q21.92613,15.25,22,15.25Q22.07387,15.25,22.14632,15.264410999999999Q22.21877,15.278822,22.287010000000002,15.30709Q22.35526,15.335359,22.41668,15.376398Q22.4781,15.417437,22.53033,15.46967Q22.58256,15.521903,22.6236,15.583322Q22.66464,15.644742,22.69291,15.712987Q22.72118,15.781233,22.735590000000002,15.853682Q22.75,15.9261315,22.75,16L22.75,17.5Q22.75,19.67816,21.21408,21.21408Q19.67816,22.75,17.5,22.75L16,22.75Q15.9261315,22.75,15.853682,22.735590000000002Q15.781233,22.72118,15.712987,22.69291Q15.644742,22.66464,15.583322,22.6236Q15.521903,22.58256,15.46967,22.53033Q15.417437,22.4781,15.376398,22.41668Q15.335359,22.35526,15.30709,22.287010000000002Q15.278822,22.21877,15.264410999999999,22.14632Q15.25,22.07387,15.25,22Q15.25,21.92613,15.264410999999999,21.85368Q15.278822,21.78123,15.30709,21.712989999999998Q15.335359,21.64474,15.376398,21.58332Q15.417437,21.5219,15.46967,21.46967Q15.521903,21.41744,15.583322,21.3764Q15.644742,21.33536,15.712987,21.30709Q15.781233,21.27882,15.853682,21.264409999999998Q15.9261315,21.25,16,21.25L17.5,21.25Q19.05684,21.25,20.15342,20.15342Q21.25,19.05684,21.25,17.5L21.25,16Z" fill-rule="evenodd" fill="#FFFFFF" fill-opacity="1"/></g><g><path d="M1.25,15Q1.25,14.9261315,1.264411,14.853682Q1.278822,14.781233,1.30709,14.712987Q1.335359,14.644742,1.376398,14.583322Q1.417437,14.521903,1.46967,14.46967Q1.521903,14.417437,1.583322,14.376398Q1.644742,14.335359,1.712987,14.30709Q1.781233,14.278822,1.853682,14.264410999999999Q1.9261314999999999,14.25,2,14.25Q2.0738685,14.25,2.146318,14.264410999999999Q2.218767,14.278822,2.287013,14.30709Q2.355258,14.335359,2.416678,14.376398Q2.478097,14.417437,2.53033,14.46967Q2.582563,14.521903,2.623602,14.583322Q2.664641,14.644742,2.69291,14.712987Q2.721178,14.781233,2.735589,14.853682Q2.75,14.9261315,2.75,15L2.75,17.5Q2.75,19.05684,3.8465800000000003,20.15342Q4.943160000000001,21.25,6.5,21.25L9,21.25Q9.07387,21.25,9.14632,21.264409999999998Q9.21877,21.27882,9.28701,21.30709Q9.355260000000001,21.33536,9.41668,21.3764Q9.478100000000001,21.41744,9.53033,21.46967Q9.58256,21.5219,9.6236,21.58332Q9.66464,21.64474,9.692910000000001,21.712989999999998Q9.72118,21.78123,9.73559,21.85368Q9.75,21.92613,9.75,22Q9.75,22.07387,9.73559,22.14632Q9.72118,22.21877,9.692910000000001,22.287010000000002Q9.66464,22.35526,9.6236,22.41668Q9.58256,22.4781,9.53033,22.53033Q9.478100000000001,22.58256,9.41668,22.6236Q9.355260000000001,22.66464,9.28701,22.69291Q9.21877,22.72118,9.14632,22.735590000000002Q9.07387,22.75,9,22.75L6.5,22.75Q4.32184,22.75,2.78592,21.21408Q1.25,19.67816,1.25,17.5L1.25,15Z" fill-rule="evenodd" fill="#FFFFFF" fill-opacity="1"/></g><g><path d="M10.65533,5.34467Q10.06066,4.75,9,4.75L7,4.75Q5.93934,4.75,5.34467,5.34467Q4.75,5.93934,4.75,7L4.75,9Q4.75,10.06066,5.34467,10.65533Q5.93934,11.25,7,11.25L9,11.25Q10.06066,11.25,10.65533,10.65533Q11.25,10.06066,11.25,9L11.25,7Q11.25,5.93934,10.65533,5.34467ZM7,6.25L9,6.25Q9.43934,6.25,9.59467,6.40533Q9.75,6.56066,9.75,7L9.75,9Q9.75,9.43934,9.59467,9.59467Q9.43934,9.75,9,9.75L7,9.75Q6.56066,9.75,6.40533,9.59467Q6.25,9.43934,6.25,9L6.25,7Q6.25,6.56066,6.40533,6.40533Q6.56066,6.25,7,6.25Z" fill-rule="evenodd" fill="#FFFFFF" fill-opacity="1"/></g><g><path d="M18.65533,5.34467Q18.06066,4.75,17,4.75L15,4.75Q13.93934,4.75,13.34467,5.34467Q12.75,5.93934,12.75,7L12.75,9Q12.75,10.06066,13.34467,10.65533Q13.93934,11.25,15,11.25L17,11.25Q18.06066,11.25,18.65533,10.65533Q19.25,10.06066,19.25,9L19.25,7Q19.25,5.93934,18.65533,5.34467ZM15,6.25L17,6.25Q17.43934,6.25,17.59467,6.40533Q17.75,6.56066,17.75,7L17.75,9Q17.75,9.43934,17.59467,9.59467Q17.43934,9.75,17,9.75L15,9.75Q14.56066,9.75,14.40533,9.59467Q14.25,9.43934,14.25,9L14.25,7Q14.25,6.56066,14.40533,6.40533Q14.56066,6.25,15,6.25Z" fill-rule="evenodd" fill="#FFFFFF" fill-opacity="1"/></g><g><path d="M10.65533,13.34467Q10.06066,12.75,9,12.75L7,12.75Q5.93934,12.75,5.34467,13.34467Q4.75,13.93934,4.75,15L4.75,17Q4.75,18.06066,5.34467,18.65533Q5.93934,19.25,7,19.25L9,19.25Q10.06066,19.25,10.65533,18.65533Q11.25,18.06066,11.25,17L11.25,15Q11.25,13.93934,10.65533,13.34467ZM7,14.25L9,14.25Q9.43934,14.25,9.59467,14.40533Q9.75,14.56066,9.75,15L9.75,17Q9.75,17.43934,9.59467,17.59467Q9.43934,17.75,9,17.75L7,17.75Q6.56066,17.75,6.40533,17.59467Q6.25,17.43934,6.25,17L6.25,15Q6.25,14.56066,6.40533,14.40533Q6.56066,14.25,7,14.25Z" fill-rule="evenodd" fill="#FFFFFF" fill-opacity="1"/></g><g><path d="M18.65533,13.34467Q18.06066,12.75,17,12.75L15,12.75Q13.93934,12.75,13.34467,13.34467Q12.75,13.93934,12.75,15L12.75,17Q12.75,18.06066,13.34467,18.65533Q13.93934,19.25,15,19.25L17,19.25Q18.06066,19.25,18.65533,18.65533Q19.25,18.06066,19.25,17L19.25,15Q19.25,13.93934,18.65533,13.34467ZM15,14.25L17,14.25Q17.43934,14.25,17.59467,14.40533Q17.75,14.56066,17.75,15L17.75,17Q17.75,17.43934,17.59467,17.59467Q17.43934,17.75,17,17.75L15,17.75Q14.56066,17.75,14.40533,17.59467Q14.25,17.43934,14.25,17L14.25,15Q14.25,14.56066,14.40533,14.40533Q14.56066,14.25,15,14.25Z" fill-rule="evenodd" fill="#FFFFFF" fill-opacity="1"/></g><g transform="matrix(-1,-1.2246469849340659e-16,1.2246469849340659e-16,-1,48,48)" style="opacity:0;"></g></g></g></g></svg>